<?xml version="1.0" encoding="UTF-8" standalone="no"?>
<svg
   xmlns:dc="http://purl.org/dc/elements/1.1/"
   xmlns:cc="http://creativecommons.org/ns#"
   xmlns:rdf="http://www.w3.org/1999/02/22-rdf-syntax-ns#"
   xmlns:svg="http://www.w3.org/2000/svg"
   xmlns="http://www.w3.org/2000/svg"
   xmlns:sodipodi="http://sodipodi.sourceforge.net/DTD/sodipodi-0.dtd"
   xmlns:inkscape="http://www.inkscape.org/namespaces/inkscape"
   aria-hidden="true"
   focusable="false"
   width="155.93399"
   height="55.000076"
   preserveAspectRatio="xMidYMid meet"
   viewBox="0 0 155.93399 55.000076"
   version="1.1"
   id="svg4"
   sodipodi:docname="my_cite_github_pages.svg"
   inkscape:version="1.0.1 (3bc2e813f5, 2020-09-07)"
   inkscape:export-filename="C:\Users\Vitya\Downloads\github1.png"
   inkscape:export-xdpi="96"
   inkscape:export-ydpi="96">
  <metadata
     id="metadata10">
    <rdf:RDF>
      <cc:Work
         rdf:about="">
        <dc:format>image/svg+xml</dc:format>
        <dc:type
           rdf:resource="http://purl.org/dc/dcmitype/StillImage" />
        <dc:title />
      </cc:Work>
    </rdf:RDF>
  </metadata>
  <defs
     id="defs8" />
  <sodipodi:namedview
     pagecolor="#ffffff"
     bordercolor="#666666"
     borderopacity="1"
     objecttolerance="10"
     gridtolerance="10"
     guidetolerance="10"
     inkscape:pageopacity="0"
     inkscape:pageshadow="2"
     inkscape:window-width="640"
     inkscape:window-height="480"
     id="namedview6"
     showgrid="false"
     inkscape:zoom="4.1577879"
     inkscape:cx="64.990673"
     inkscape:cy="24.387877"
     inkscape:current-layer="svg4"
     showguides="true"
     inkscape:guide-bbox="true"
     fit-margin-top="0"
     fit-margin-left="0"
     fit-margin-right="18"
     fit-margin-bottom="0"
     inkscape:object-paths="true"
     inkscape:document-rotation="0" />
  <circle
     style="fill:#ffffff;fill-opacity:1;stroke:#f2f2f2;stroke-width:0.26666667;stroke-miterlimit:4;stroke-dasharray:none"
     id="path856-0"
     cx="27.500038"
     cy="27.500038"
     r="27.392794" />
  <path
     d="m 27.501577,2.5195024 c -13.78265,0 -24.9588696,11.1742696 -24.9588696,24.9588696 0,11.02744 7.15144,20.38323 17.0684196,23.68343 1.24735,0.23107 1.70538,-0.54148 1.70538,-1.20074 0,-0.59511 -0.0234,-2.56119 -0.0339,-4.64661 -6.94359,1.50961 -8.40874,-2.94492 -8.40874,-2.94492 -1.13542,-2.88487 -2.77139,-3.65216 -2.77139,-3.65216 -2.2644096,-1.549 0.17082,-1.51702 0.17082,-1.51702 2.5062,0.17588 3.82589,2.57191 3.82589,2.57191 2.22619,3.81556 5.83896,2.71251 7.26317,2.07469 0.22404,-1.61295 0.87082,-2.71425 1.58468,-3.33744 -5.54375,-0.63098 -11.37141,-2.77119 -11.37141,-12.33465 0,-2.72498 0.97495,-4.95157 2.57152,-6.69946 -0.25914,-0.62864 -1.11339,-3.16702 0.24179,-6.60508 0,0 2.09594,-0.67076 6.86559,2.55846 1.99084,-0.55299 4.12598,-0.83026 6.24708,-0.83982 2.12109,0.01 4.25798,0.28664 6.25253,0.83982 4.76379,-3.22902 6.85681,-2.55826 6.85681,-2.55826 1.35849,3.43767 0.50385,5.97643 0.24471,6.60488 1.60028,1.74789 2.5686,3.97448 2.5686,6.69946 0,9.58627 -5.83877,11.69704 -11.39656,12.31496 0.8952,0.7745 1.6929,2.29347 1.6929,4.62203 0,3.33939 -0.0288,6.02713 -0.0288,6.84921 0,0.66433 0.44925,1.44253 1.71434,1.19723 9.91152,-3.30371 17.05399,-12.65599 17.05399,-23.67973 0,-13.78479 -11.17466,-24.9590596 -24.95847,-24.9590596 z M 11.890697,38.073912 c -0.055,0.12401 -0.25017,0.16125 -0.4278,0.076 -0.18115,-0.0813 -0.28274,-0.25037 -0.22424,-0.37477 0.0538,-0.12772 0.24939,-0.1634 0.42995,-0.0778 0.18134,0.0815 0.28469,0.25212 0.22209,0.37653 z m 1.22766,1.09545 c -0.11894,0.11036 -0.35176,0.0591 -0.5097,-0.11524 -0.16321,-0.17393 -0.19382,-0.40675 -0.0731,-0.51867 0.12284,-0.11037 0.34844,-0.0587 0.51204,0.11523 0.1634,0.17608 0.19499,0.40714 0.0708,0.51868 z m 0.84235,1.40158 c -0.15306,0.10627 -0.40304,0.007 -0.55767,-0.21527 -0.15287,-0.22189 -0.15287,-0.48806 0.003,-0.59471 0.15502,-0.10666 0.40129,-0.0107 0.55786,0.20961 0.15249,0.2256 0.15249,0.49176 -0.004,0.60057 z m 1.42421,1.62329 c -0.13669,0.15092 -0.4282,0.11036 -0.64152,-0.0955 -0.21819,-0.20123 -0.27883,-0.4867 -0.14156,-0.63762 0.13844,-0.15131 0.43151,-0.1088 0.64639,0.0955 0.21644,0.20084 0.28274,0.48845 0.13669,0.63762 z m 1.84109,0.54792 c -0.0605,0.19558 -0.34123,0.28449 -0.62377,0.20143 -0.28235,-0.0856 -0.467,-0.31452 -0.41006,-0.51205 0.0587,-0.19694 0.34064,-0.28936 0.62533,-0.20045 0.28195,0.085 0.46719,0.31238 0.4085,0.51127 z m 2.09497,0.23262 c 0.007,0.20572 -0.23262,0.37633 -0.5294,0.38023 -0.29833,0.007 -0.53992,-0.15989 -0.54324,-0.36268 0,-0.20766 0.23438,-0.37672 0.53291,-0.38179 0.29677,-0.006 0.53973,0.1595 0.53973,0.36424 z m 2.05812,-0.079 c 0.0355,0.20084 -0.17062,0.40714 -0.46544,0.46213 -0.28956,0.0528 -0.55787,-0.0712 -0.59472,-0.27026 -0.0359,-0.20591 0.17412,-0.41221 0.46329,-0.46544 0.29522,-0.0513 0.55923,0.0694 0.59687,0.27357 z"
     fill="#161614"
     id="path2"
     style="fill:#000000;fill-opacity:1;stroke-width:0.19499;stroke:#ffffff;stroke-opacity:1" />
  <text
     xml:space="preserve"
     style="font-style:normal;font-variant:normal;font-weight:normal;font-stretch:normal;font-size:11.1873px;line-height:1.25;font-family:Verdana;-inkscape-font-specification:Verdana;fill:#b3b3b3;fill-opacity:1;stroke:none;stroke-width:0.204507;"
     x="62.680313"
     y="22.167048"
     id="text877"
     transform="scale(0.95346261,1.0488088)"><tspan
       sodipodi:role="line"
       id="tspan875"
       x="62.680313"
       y="22.167048"
       style="font-style:normal;font-variant:normal;font-weight:normal;font-stretch:normal;font-size:11.1873px;font-family:Verdana;-inkscape-font-specification:Verdana;fill:#b3b3b3;stroke-width:0.204507;stroke:none;">My cite</tspan><tspan
       sodipodi:role="line"
       x="62.680313"
       y="36.151173"
       id="tspan879"
       style="font-style:normal;font-variant:normal;font-weight:normal;font-stretch:normal;font-size:11.1873px;font-family:Verdana;-inkscape-font-specification:Verdana;fill:#b3b3b3;stroke-width:0.204507;stroke:none;">on GitHub Pages</tspan></text>
  <rect
     style="fill:none;fill-opacity:1;stroke:#b3b3b3;stroke-opacity:1;stroke-width:0.26666667;stroke-miterlimit:4;stroke-dasharray:none"
     id="rect903"
     width="156.22005"
     height="54.771194"
     x="0.11307743"
     y="0.12152106" />
</svg>
